<?xml version="1.0" encoding="UTF-8"?>
<!DOCTYPE svg PUBLIC "-//W3C//DTD SVG 1.1//EN" "http://www.w3.org/Graphics/SVG/1.1/DTD/svg11.dtd">
<!-- Creator: CorelDRAW (Versión OEM) -->
<svg xmlns="http://www.w3.org/2000/svg" xml:space="preserve" width="170.18mm" height="50.8mm" version="1.1" style="shape-rendering:geometricPrecision; text-rendering:geometricPrecision; image-rendering:optimizeQuality; fill-rule:evenodd; clip-rule:evenodd"
viewBox="0 0 17018 5080"
 xmlns:xlink="http://www.w3.org/1999/xlink"
 xmlns:xodm="http://www.corel.com/coreldraw/odm/2003">
 <defs>
  <style type="text/css">
   <![CDATA[
    .fil1 {fill:black;fill-rule:nonzero}
    .fil0 {fill:black;fill-rule:nonzero}
   ]]>
  </style>
 </defs>
 <g id="Capa_x0020_1">
  <metadata id="CorelCorpID_0Corel-Layer"/>
  <g id="_1849505809968">
   <g>
    <path class="fil0" d="M297.13 663.63l0 2460.4 1230.2 0c337.43,0 643.22,-137.08 864.65,-362.03 24.61,-24.6 49.21,-49.21 70.3,-73.81 182.77,-214.41 291.73,-492.08 291.73,-794.36 0,-681.88 -551.83,-1230.2 -1230.19,-1230.2l-1226.69 0zm435.84 439.36l790.85 0c435.84,0 790.84,355.59 790.84,792.6 0,437.01 -355,792.6 -790.84,792.6l-790.85 0 0 -1585.2z"/>
    <path class="fil0" d="M4300.2 657.17c-678.37,0 -1230.2,551.84 -1230.2,1230.2 0,678.37 551.83,1230.2 1230.2,1230.2 678.36,0 1230.2,-551.83 1230.2,-1230.2 0,-678.36 -551.84,-1230.2 -1230.2,-1230.2zm0 2021.04c-435.84,0 -790.84,-355 -790.84,-790.84 0,-435.84 355,-790.84 790.84,-790.84 435.84,0 790.84,355 790.84,790.84 0,435.84 -355,790.84 -790.84,790.84z"/>
    <polygon class="fil0" points="5604.44,670.08 5604.44,1109.44 6613.21,1109.44 6613.21,3442.52 7052.56,3442.52 7052.56,1109.44 8061.33,1109.44 8061.33,670.08 "/>
    <polygon class="fil0" points="9313.34,2691.13 9643.74,2265.24 9921.42,1905.55 10533,1109.44 10873.94,670.08 10873.94,670.08 10322.11,670.08 10322.11,670.08 8420.57,670.08 8420.57,1109.44 9984.68,1109.44 9647.26,1545.87 9369.58,1905.55 8765.03,2691.13 8427.6,3130.48 8424.09,3130.48 8979.43,3130.48 8982.95,3130.48 11209.3,3130.48 11209.3,2691.13 "/>
    <polygon class="fil0" points="13321.15,331.15 13321.15,1562.86 11739.47,1562.86 11739.47,670.08 11300.11,670.08 11300.11,3130.48 11739.47,3130.48 11739.47,2002.21 13321.15,2002.21 13321.15,3130.48 13760.51,3130.48 13760.51,331.15 "/>
    <polygon class="fil0" points="16295.52,2691.13 15265.67,670.08 14235.82,2691.13 14010.86,3130.48 14502.94,3130.48 14727.89,2691.13 15265.67,1636.67 15803.44,2691.13 16220.72,3525.91 16720.87,3527.25 "/>
   </g>
   <path class="fil1" d="M5952.53 4743.56c-64.91,0 -122.59,-8.82 -173.04,-26.45 -50.45,-17.64 -92.96,-43.22 -127.53,-76.73 -34.57,-33.52 -60.85,-73.56 -78.84,-120.12 -17.99,-46.57 -26.99,-99.13 -26.99,-157.69 0,-55.03 9.35,-104.6 28.05,-148.7 18.69,-44.09 45.86,-82.02 81.49,-113.77 35.63,-31.74 79.37,-56.26 131.23,-73.55 51.86,-17.28 110.95,-26.28 177.27,-26.99 42.33,-0.7 79.9,1.59 112.71,6.88 32.81,5.29 61.56,12.53 86.25,21.7 24.7,9.17 45.86,19.75 63.5,31.75 11.29,7.05 20.46,13.93 27.52,20.64 7.05,6.7 10.93,12.87 11.64,18.52 1.41,2.82 1.41,6.7 0,11.64 -1.41,4.94 -3.53,9.88 -6.35,14.81 -2.82,4.24 -6.35,7.59 -10.58,10.06 -4.24,2.47 -8.82,3.7 -13.76,3.7 -0.71,0 -4.41,-1.94 -11.12,-5.82 -6.7,-3.88 -14.99,-8.64 -24.87,-14.29 -15.52,-10.58 -34.21,-19.93 -56.09,-28.04 -21.87,-8.11 -47.8,-14.64 -77.78,-19.58 -29.99,-4.94 -65.09,-7.41 -105.31,-7.41 -74.78,0 -138.28,12.17 -190.49,36.51 -52.21,24.35 -91.9,59.27 -119.06,104.78 -27.17,45.51 -40.75,99.3 -40.75,161.39 0.71,64.21 14.64,119.59 41.8,166.16 27.17,46.56 66.5,82.72 118.01,108.48 51.5,25.75 113.94,38.62 187.32,38.62 40.22,0 76.02,-2.47 107.42,-7.4 31.4,-4.94 59.26,-11.47 83.61,-19.58 24.34,-8.12 46.03,-17.11 65.08,-26.99l0 -231.77 -300.56 0c-7.06,0 -13.05,-1.06 -17.99,-3.18 -4.94,-2.11 -8.64,-5.64 -11.11,-10.58 -2.47,-4.94 -3.71,-10.58 -3.71,-16.93 0,-7.76 1.24,-13.94 3.71,-18.52 2.47,-4.59 5.99,-8.12 10.58,-10.59 4.59,-2.47 10.41,-3.7 17.46,-3.7l318.56 0c11.28,0 20.28,1.59 26.98,4.76 6.71,3.18 11.64,8.11 14.82,14.82 3.17,6.7 4.76,15.7 4.76,26.98l0 258.23c0,8.47 -5.47,17.64 -16.4,27.52 -10.94,9.88 -26.28,19.76 -46.04,29.63 -16.93,8.47 -37.57,16.58 -61.91,24.35 -24.34,7.76 -52.92,14.11 -85.72,19.04 -32.81,4.94 -70.74,7.41 -113.77,7.41zm986.35 1.06c-7.76,0 -13.93,-1.06 -18.52,-3.17 -4.59,-2.12 -7.76,-5.65 -9.53,-10.59 -1.76,-4.94 -2.64,-11.29 -2.64,-19.05l0 -675.2c0,-7.06 1.23,-12.7 3.7,-16.94 2.47,-4.23 6,-7.58 10.59,-10.05 4.58,-2.47 10.4,-3.71 17.46,-3.71l372.53 0c37.39,0 71.43,4.94 102.13,14.82 30.69,9.88 57.32,24.34 79.9,43.39 22.58,19.05 39.86,42.86 51.86,71.44 11.99,28.57 17.99,61.56 17.99,98.95 0,21.87 -4.77,45.86 -14.29,71.97 -9.52,26.1 -23.46,50.8 -41.8,74.08 -18.35,23.28 -41.1,42.33 -68.27,57.15 -27.16,14.82 -58.38,22.22 -93.66,22.22l-375.7 0 0 252.94c0,7.76 -1.06,13.94 -3.18,18.52 -2.11,4.59 -5.46,7.94 -10.05,10.06 -4.59,2.11 -10.76,3.17 -18.52,3.17zm615.94 -7.41c-9.17,4.94 -17.46,6 -24.87,3.18 -7.41,-2.82 -13.58,-8.82 -18.52,-17.99l-187.32 -273.05 65.61 -11.64 177.8 251.88c4.94,7.76 7.76,14.46 8.47,20.11 0.7,5.64 -0.71,10.58 -4.23,14.81 -3.53,4.24 -9.18,8.47 -16.94,12.7zm-584.19 -337.6l373.59 0c19.05,0 37.92,-3.53 56.62,-10.58 18.69,-7.06 35.63,-17.64 50.8,-31.75 15.17,-14.11 27.34,-31.4 36.51,-51.86 9.17,-20.46 13.76,-44.45 13.76,-71.97 0,-35.98 -8.29,-66.14 -24.87,-90.48 -16.58,-24.34 -39.34,-42.69 -68.27,-55.04 -28.92,-12.34 -61.73,-18.52 -98.42,-18.52l-339.72 0 0 330.2zm1592.77 345.01c-62.09,0 -116.24,-7.76 -162.45,-23.28 -46.22,-15.52 -84.67,-38.1 -115.36,-67.73 -30.69,-29.64 -53.62,-65.44 -68.79,-107.42 -15.17,-41.98 -22.75,-89.08 -22.75,-141.29l0 -367.24c0,-7.76 1.05,-13.93 3.17,-18.52 2.12,-4.58 5.47,-7.93 10.05,-10.05 4.59,-2.12 10.76,-3.18 18.53,-3.18 7.76,0 13.93,1.06 18.52,3.18 4.58,2.12 8.11,5.64 10.58,10.58 2.47,4.94 3.7,11.29 3.7,19.05l0 366.18c0,56.44 11.12,105.48 33.34,147.11 22.22,41.62 56.09,73.73 101.6,96.3 45.51,22.58 103.19,33.87 173.03,33.87 69.15,0 126.47,-11.29 171.98,-33.87 45.51,-22.57 79.38,-54.68 101.6,-96.3 22.22,-41.63 33.34,-91.02 33.34,-148.17l0 -372.53c0,-6.35 1.06,-11.28 3.17,-14.81 2.12,-3.53 5.65,-6.18 10.59,-7.94 4.93,-1.76 11.28,-2.65 19.05,-2.65 7.05,0 12.87,1.06 17.46,3.18 4.58,2.12 7.93,5.64 10.05,10.58 2.12,4.94 3.18,11.29 3.18,19.05l0 368.3c0,52.21 -7.76,99.13 -23.29,140.75 -15.52,41.63 -38.8,77.08 -69.85,106.37 -31.04,29.28 -69.84,51.68 -116.41,67.2 -46.57,15.52 -101.25,23.28 -164.04,23.28zm1044.56 0c-7.76,0 -13.94,-1.06 -18.52,-3.17 -4.59,-2.12 -7.76,-5.65 -9.53,-10.59 -1.76,-4.94 -2.64,-11.29 -2.64,-19.05l0 -674.15c0,-7.05 1.23,-12.87 3.7,-17.46 2.47,-4.58 6.18,-8.11 11.11,-10.58 4.94,-2.47 10.59,-3.71 16.94,-3.71l370.41 0c35.98,0 69.14,5.12 99.48,15.35 30.34,10.23 56.97,25.4 79.9,45.51 22.93,20.11 40.93,44.27 53.98,72.49 13.05,28.22 19.58,60.33 19.58,96.31 0,35.98 -6.53,67.91 -19.58,95.78 -13.05,27.87 -31.22,51.68 -54.5,71.43 -23.29,19.76 -50.1,34.75 -80.44,44.98 -30.34,10.23 -63.5,15.35 -99.48,15.35l-337.6 0 0 249.76c0,7.76 -1.06,13.94 -3.18,18.52 -2.12,4.59 -5.47,7.94 -10.05,10.06 -4.59,2.11 -11.11,3.17 -19.58,3.17zm32.81 -345.01l338.66 0c34.57,0 66.14,-6.53 94.72,-19.58 28.57,-13.05 51.68,-32.1 69.32,-57.15 17.64,-25.05 26.46,-54.86 26.46,-89.43 0,-34.57 -8.82,-64.03 -26.46,-88.37 -17.64,-24.34 -40.92,-43.04 -69.85,-56.09 -28.93,-13.05 -60.68,-19.58 -95.25,-19.58l-337.6 0 0 330.2zm1600.17 349.24c-64.2,0 -123.29,-8.99 -177.26,-26.98 -53.98,-17.99 -100.72,-43.39 -140.23,-76.2 -39.51,-32.81 -70.03,-71.79 -91.55,-116.95 -21.52,-45.15 -32.28,-94.89 -32.28,-149.22 0,-56.44 10.59,-107.95 31.75,-154.51 21.17,-46.57 50.98,-86.79 89.43,-120.65 38.45,-33.87 84.14,-59.97 137.05,-78.32 52.92,-18.34 110.78,-27.51 173.57,-27.51 64.2,0 123.29,8.99 177.27,26.98 53.97,17.99 100.54,43.57 139.7,76.73 39.15,33.16 69.49,72.85 91.01,119.06 21.52,46.22 32.28,97.54 32.28,153.99 0,55.03 -10.58,105.3 -31.75,150.81 -21.17,45.51 -50.98,85.02 -89.43,118.53 -38.45,33.51 -83.96,59.27 -136.52,77.26 -52.56,17.99 -110.24,26.98 -173.04,26.98zm-6.35 -62.44c55.04,0 105.48,-7.58 151.34,-22.75 45.86,-15.17 85.37,-36.69 118.54,-64.56 33.16,-27.87 58.91,-60.85 77.25,-98.95 18.35,-38.1 27.52,-80.08 27.52,-125.94 0,-46.57 -9.17,-88.9 -27.52,-127 -18.34,-38.1 -44.27,-71.08 -77.78,-98.95 -33.52,-27.87 -73.03,-49.39 -118.54,-64.56 -45.5,-15.17 -95.42,-22.75 -149.75,-22.75 -54.32,0 -104.24,7.58 -149.75,22.75 -45.51,15.17 -85.02,36.69 -118.53,64.56 -33.52,27.87 -59.44,61.03 -77.79,99.48 -18.34,38.45 -27.51,80.96 -27.51,127.53 0,45.86 9.17,87.84 27.51,125.94 18.35,38.1 44.27,70.91 77.79,98.42 33.51,27.52 73.02,48.86 118.53,64.03 45.51,15.17 95.07,22.75 148.69,22.75z"/>
  </g>
 </g>
</svg>
