<?xml version="1.0" encoding="UTF-8"?>
<!DOCTYPE svg PUBLIC "-//W3C//DTD SVG 1.1//EN" "http://www.w3.org/Graphics/SVG/1.1/DTD/svg11.dtd">
<!-- Creator: CorelDRAW (Versión OEM) -->
<svg xmlns="http://www.w3.org/2000/svg" xml:space="preserve" width="248.92mm" height="63.5mm" version="1.1" style="shape-rendering:geometricPrecision; text-rendering:geometricPrecision; image-rendering:optimizeQuality; fill-rule:evenodd; clip-rule:evenodd"
viewBox="0 0 24892 6350"
 xmlns:xlink="http://www.w3.org/1999/xlink"
 xmlns:xodm="http://www.corel.com/coreldraw/odm/2003">
 <defs>
  <style type="text/css">
   <![CDATA[
    .fil1 {fill:none}
    .fil0 {fill:black;fill-rule:nonzero}
   ]]>
  </style>
 </defs>
 <g id="Capa_x0020_1">
  <metadata id="CorelCorpID_0Corel-Layer"/>
  <g id="_1849614789616">
   <path class="fil0" d="M1330.78 1462l0 3330.27 1665.13 0c456.72,0 870.63,-185.54 1170.35,-490.03 33.31,-33.3 66.61,-66.6 95.15,-99.9 247.4,-290.21 394.88,-666.06 394.88,-1075.21 0,-922.96 -746.93,-1665.13 -1665.14,-1665.13l-1660.37 0zm589.93 594.69l1070.44 0c589.94,0 1070.45,481.3 1070.45,1072.82 0,591.52 -480.51,1072.83 -1070.45,1072.83l-1070.44 0 0 -2145.65z"/>
   <path class="fil0" d="M6749.15 1453.26c-918.2,0 -1665.13,746.93 -1665.13,1665.13 0,918.21 746.93,1665.14 1665.13,1665.14 918.21,0 1665.14,-746.93 1665.14,-1665.14 0,-918.2 -746.93,-1665.13 -1665.14,-1665.13zm0 2735.58c-589.93,0 -1070.44,-480.51 -1070.44,-1070.45 0,-589.93 480.51,-1070.44 1070.44,-1070.44 589.94,0 1070.45,480.51 1070.45,1070.44 0,589.94 -480.51,1070.45 -1070.45,1070.45z"/>
   <polygon class="fil0" points="8514.52,1470.72 8514.52,2065.41 9879.94,2065.41 9879.94,5223.36 10474.63,5223.36 10474.63,2065.41 11840.05,2065.41 11840.05,1470.72 "/>
   <polygon class="fil0" points="13534.72,4206.31 13981.94,3629.85 14357.78,3142.99 15185.6,2065.41 15647.08,1470.72 15647.08,1470.72 14900.14,1470.72 14900.14,1470.72 12326.31,1470.72 12326.31,2065.41 14443.42,2065.41 13986.69,2656.14 13610.85,3142.99 12792.55,4206.31 12335.82,4801 12331.06,4801 13082.76,4801 13087.51,4801 16101.01,4801 16101.01,4206.31 "/>
   <polygon class="fil0" points="18959.52,1011.95 18959.52,2679.14 16818.62,2679.14 16818.62,1470.72 16223.92,1470.72 16223.92,4801 16818.62,4801 16818.62,3273.83 18959.52,3273.83 18959.52,4801 19554.21,4801 19554.21,1011.95 "/>
   <polygon class="fil0" points="22985.49,4206.31 21591.52,1470.72 20197.56,4206.31 19893.08,4801 20559.13,4801 20863.62,4206.31 21591.52,2779.04 22319.43,4206.31 22884.24,5336.23 23561.22,5338.05 "/>
  </g>
  <rect class="fil1" x="-1690.54" y="-1362.84" width="28273.08" height="9075.68"/>
 </g>
</svg>
