<?xml version="1.0" encoding="UTF-8"?>
<!DOCTYPE svg PUBLIC "-//W3C//DTD SVG 1.1//EN" "http://www.w3.org/Graphics/SVG/1.1/DTD/svg11.dtd">
<!-- Creator: CorelDRAW 2020 (64-Bit) -->
<svg xmlns="http://www.w3.org/2000/svg" xml:space="preserve" width="2.8in" height="2.8in" version="1.1" style="shape-rendering:geometricPrecision; text-rendering:geometricPrecision; image-rendering:optimizeQuality; fill-rule:evenodd; clip-rule:evenodd"
viewBox="0 0 2800 2800"
 xmlns:xlink="http://www.w3.org/1999/xlink"
 xmlns:xodm="http://www.corel.com/coreldraw/odm/2003">
 <defs>
  <style type="text/css">
   <![CDATA[
    .fil0 {fill:black}
   ]]>
  </style>
 </defs>
 <g id="Capa_x0020_1">
  <metadata id="CorelCorpID_0Corel-Layer"/>
  <g id="_1869011172128">
   <path class="fil0" d="M775.86 402.36c183.57,-121.76 388.47,-186.13 593.6,-197.54l13.63 240.67 6.51 114.95c-311.71,13.43 -579.14,197.52 -711.26,461.2l-96.37 -47.93 -215.99 -107.42c90.35,-182.05 228.33,-343.5 409.89,-463.92zm699.63 1827.74l5.68 122.94 11.13 240.89c-405.91,18.41 -811.07,-170.49 -1052.02,-533.74l200.93 -133.28 93.2 -61.82c150.42,221.19 404.12,366.49 691.77,366.49 16.56,0 32.99,-0.54 49.31,-1.48zm654.78 -1285.41l105.6 -69.21 201.38 -131.99c244.87,373.54 253.64,834.06 62.17,1205.11l-214.07 -110.75 -115.61 -59.81c59.07,-114.6 92.44,-244.63 92.44,-382.45 0,-166.06 -48.42,-320.8 -131.91,-450.9z"/>
   <circle class="fil0" transform="matrix(0.224812 -0.223616 0.223616 0.224812 388.255 1477.46)" r="697.92"/>
   <circle class="fil0" transform="matrix(0.0311591 0.315553 -0.315553 0.0311591 1920.79 467.539)" r="697.92"/>
   <circle class="fil0" transform="matrix(-0.296931 -0.11125 0.11125 -0.296931 1997.34 2281.42)" r="697.92"/>
   <circle class="fil0" transform="matrix(0.339988 -0.225513 0.225513 0.339988 1443.28 1390.18)" r="1250"/>
  </g>
 </g>
</svg>
